<?xml version="1.0" encoding="utf-8"?>
<!-- Generator: Adobe Illustrator 16.0.0, SVG Export Plug-In . SVG Version: 6.00 Build 0)  -->
<!DOCTYPE svg PUBLIC "-//W3C//DTD SVG 1.1//EN" "http://www.w3.org/Graphics/SVG/1.1/DTD/svg11.dtd">
<svg version="1.1" id="图层_1" xmlns="http://www.w3.org/2000/svg" xmlns:xlink="http://www.w3.org/1999/xlink" x="0px" y="0px"
	 width="132.163px" height="50.907px" viewBox="0 0 132.163 50.907" enable-background="new 0 0 132.163 50.907"
	 xml:space="preserve">
<text id="XMLID_60_" transform="matrix(1 0 0 1 34.1431 31.2808)" fill="#00AFEF" font-family="'FZLTHK--GBK1-0'" font-size="24">忘记密码</text>
<path id="XMLID_113_" fill="#00AFEF" d="M21.067,16.143c0.447,0,0.838,0.17,1.129,0.468c0.284,0.277,0.468,0.682,0.468,1.122
	c0,0.874-0.724,1.604-1.598,1.604c-0.433,0-0.837-0.198-1.129-0.468c-0.291-0.299-0.468-0.696-0.468-1.137
	C19.47,16.853,20.187,16.143,21.067,16.143L21.067,16.143z M5.623,20.446L5.623,20.446c-0.448-0.49-1.115-1.619-2.017-0.888
	c-0.185,0.163-0.305,0.348-0.354,0.554c-1.988,8.457,1.704,13.399,8.35,14.563c1.889,0.313,6.263,0.327,8.379-0.383
	c5.566-1.875,7.526-7.584,3.089-11.234c0.717-0.567,1.256-1.214,1.64-1.896l3.331-1.854c0.106-0.049,0.177-0.128,0.234-0.234
	c0.17-0.292,0.057-0.654-0.234-0.809l-2.755-1.535c-0.86-3.621-4.665-6.625-9.018-4.814C12.61,13.423,11.141,17.762,13,21.17
	C9.11,22.321,8.584,23.769,5.623,20.446L5.623,20.446z M25.342,19.445L25.342,19.445c0.092-0.405,0.121-0.831,0.113-1.243
	l1.065,0.582L25.342,19.445L25.342,19.445z M21.344,17.464L21.344,17.464c-0.071-0.078-0.171-0.128-0.277-0.128
	c-0.213,0-0.397,0.177-0.397,0.397c0,0.113,0.043,0.199,0.121,0.284c0.064,0.064,0.17,0.099,0.277,0.099
	c0.221,0,0.405-0.17,0.405-0.383C21.472,17.62,21.415,17.528,21.344,17.464L21.344,17.464z M4.892,22.576L4.892,22.576
	c4.48,3.998,5.333,0.795,9.934,0.249v-0.007c0.802-0.099,1.164-1.065,0.604-1.668c-2.706-2.904-0.682-7.732,3.358-7.732
	c4.573,0,6.711,6.405,2.031,8.72v0.007c-0.709,0.34-0.739,1.363-0.042,1.754c4.666,2.641,2.911,7.398-2.017,8.67
	c-2.258,0.589-5.226,0.447-7.42-0.043c-4.48-0.965-7.314-3.905-6.504-10.012L4.892,22.576L4.892,22.576z"/>
</svg>
