<?xml version="1.0" encoding="utf-8"?>
<!-- Generator: Adobe Illustrator 16.0.0, SVG Export Plug-In . SVG Version: 6.00 Build 0)  -->
<!DOCTYPE svg PUBLIC "-//W3C//DTD SVG 1.1//EN" "http://www.w3.org/Graphics/SVG/1.1/DTD/svg11.dtd">
<svg version="1.1" id="图层_1" xmlns="http://www.w3.org/2000/svg" xmlns:xlink="http://www.w3.org/1999/xlink" x="0px" y="0px"
	 width="132.163px" height="95.868px" viewBox="0 0 132.163 95.868" enable-background="new 0 0 132.163 95.868"
	 xml:space="preserve">
<g id="XMLID_817_">
	<text transform="matrix(1 0 0 1 14.584 88.6895)" fill="#00AFEF" font-family="'FZLTHK--GBK1-0'" font-size="23.6049">微信直登</text>
</g>
<g id="XMLID_805_">
	<path id="XMLID_816_" fill-rule="evenodd" clip-rule="evenodd" fill="#00B020" d="M87.08,44.908c0,4.347-3.523,7.87-7.87,7.87
		H44.95c-4.347,0-7.87-3.523-7.87-7.87v-34.26c0-4.346,3.523-7.87,7.87-7.87h34.26c4.347,0,7.87,3.524,7.87,7.87V44.908z"/>
	<g id="XMLID_806_">
		<g id="XMLID_811_">
			<path id="XMLID_812_" fill="#FFFFFF" d="M69.895,21.472c0.202,0,0.401,0.002,0.601,0.013c-1.051-5.732-6.973-10.12-14.119-10.12
				c-7.89,0-14.285,5.349-14.285,11.947c0,3.869,2.198,7.308,5.607,9.491c0.044,0.028,0.131,0.083,0.131,0.083l-1.38,4.323
				l5.164-2.63c0,0,0.162,0.046,0.243,0.07c1.419,0.396,2.94,0.609,4.52,0.609c0.322,0,0.643-0.012,0.96-0.029
				c-0.293-0.909-0.454-1.864-0.454-2.85C56.882,26.355,62.71,21.472,69.895,21.472z M61.348,17.256
				c1.107,0,2.005,0.869,2.005,1.941c0,1.072-0.897,1.943-2.005,1.943c-1.109,0-2.006-0.871-2.006-1.943
				C59.342,18.125,60.238,17.256,61.348,17.256z M51.405,21.141c-1.108,0-2.006-0.871-2.006-1.943c0-1.073,0.897-1.941,2.006-1.941
				s2.008,0.869,2.008,1.941C53.413,20.27,52.514,21.141,51.405,21.141z"/>
		</g>
		<path id="XMLID_807_" fill="#FFFFFF" d="M57.933,32.45c0,5.575,5.405,10.094,12.07,10.094c1.334,0,2.619-0.182,3.817-0.517
			c0.069-0.019,0.206-0.059,0.206-0.059l4.361,2.224l-1.166-3.654c0,0,0.074-0.046,0.11-0.07c2.88-1.844,4.737-4.749,4.737-8.019
			c0-5.573-5.403-10.092-12.066-10.092C63.338,22.358,57.933,26.876,57.933,32.45z M72.507,28.973c0-0.904,0.758-1.639,1.693-1.639
			c0.938,0,1.695,0.734,1.695,1.639c0,0.908-0.758,1.644-1.695,1.644C73.265,30.616,72.507,29.88,72.507,28.973z M64.107,28.973
			c0-0.904,0.76-1.639,1.695-1.639c0.937,0,1.695,0.734,1.695,1.639c0,0.908-0.759,1.644-1.695,1.644
			C64.867,30.616,64.107,29.88,64.107,28.973z"/>
	</g>
</g>
</svg>
