<?xml version="1.0" encoding="utf-8"?>
<!-- Generator: Adobe Illustrator 16.0.0, SVG Export Plug-In . SVG Version: 6.00 Build 0)  -->
<!DOCTYPE svg PUBLIC "-//W3C//DTD SVG 1.1//EN" "http://www.w3.org/Graphics/SVG/1.1/DTD/svg11.dtd">
<svg version="1.1" id="图层_1" xmlns="http://www.w3.org/2000/svg" xmlns:xlink="http://www.w3.org/1999/xlink" x="0px" y="0px"
	 width="101.667px" height="72px" viewBox="0 0 101.667 72" enable-background="new 0 0 101.667 72" xml:space="preserve">
<g id="XMLID_684_">
	<linearGradient id="XMLID_2_" gradientUnits="userSpaceOnUse" x1="27.228" y1="34.6533" x2="89.0747" y2="34.6533">
		<stop  offset="0" style="stop-color:#E71C24"/>
		<stop  offset="0.2579" style="stop-color:#E21C28"/>
		<stop  offset="0.5431" style="stop-color:#D51E35"/>
		<stop  offset="0.8403" style="stop-color:#BF2049"/>
		<stop  offset="0.9913" style="stop-color:#B12156"/>
	</linearGradient>
	<path id="XMLID_699_" fill="url(#XMLID_2_)" stroke="#FFFFFF" stroke-width="2" stroke-miterlimit="10" d="M68.499,6.528
		c0,0,1.308-0.713,2.735,0c1.427,0.714,17.127,11.299,17.127,11.299s0.713,0.714,0.713,1.784s-0.119,24.382-0.119,24.382
		s-0.119,1.427-1.189,1.546c-1.07,0.119-36.989,17.246-36.989,17.246s-0.952,0.951-2.617-0.476S27.822,45.301,27.822,45.301
		s-0.594-0.357-0.594-2.141c0-1.784,0-20.695,0-20.695s0.119-1.308,1.546-1.784C30.201,20.206,68.499,6.528,68.499,6.528z"/>
	<path id="XMLID_697_" fill="#FFFFFF" d="M36.282,40.387l-0.021-12.651l3.262-1.563v15.672L36.282,40.387z"/>
	<path id="XMLID_695_" fill="#FFFFFF" d="M42.477,41.845v-3.399h3.399v3.399H42.477z"/>
	<path id="XMLID_692_" fill="#FFFFFF" d="M48.81,41.845V26.172h5.867c3.184,0,4.775,1.295,4.775,3.886
		c0,0.967-0.27,1.848-0.81,2.642c-0.54,0.794-1.283,1.403-2.229,1.827l5.125,7.317h-3.971l-3.886-6.406h-1.8v6.406H48.81z
		 M51.881,33.289h0.752c2.365,0,3.547-0.957,3.547-2.87c0-1.398-1.056-2.097-3.166-2.097h-1.133V33.289z"/>
	<path id="XMLID_688_" fill="#FFFFFF" d="M62.799,41.845v-3.399h3.399v3.399H62.799z"/>
	<path id="XMLID_685_" fill="#FFFFFF" d="M80.538,40.37c-1.792,0.989-2.472,1.36-4.643,1.362c-2.488,0.003-4.4-0.655-5.735-1.964
		c-1.335-1.309-2.003-3.185-2.003-5.628c0-2.423,0.668-4.289,2.003-5.594c1.335-1.306,3.237-1.959,5.707-1.959
		c1.579,0,1.983,0.094,2.972,0.31l1.725,2.594c-1.8-0.617-3.278-0.926-4.435-0.926c-1.527,0-2.706,0.487-3.538,1.462
		c-0.832,0.975-1.248,2.355-1.248,4.142c0,1.729,0.445,3.084,1.335,4.069c0.89,0.984,2.118,1.477,3.684,1.477
		c0.344,0,0.747-0.049,1.208-0.146v-4.747h3.001L80.538,40.37z"/>
</g>
<polygon id="XMLID_678_" fill="#FFFFFF" points="20.218,24.05 20.218,43.257 5.667,33.944 "/>
</svg>
