<?xml version="1.0" encoding="utf-8"?>
<!-- Generator: Adobe Illustrator 16.0.0, SVG Export Plug-In . SVG Version: 6.00 Build 0)  -->
<!DOCTYPE svg PUBLIC "-//W3C//DTD SVG 1.1//EN" "http://www.w3.org/Graphics/SVG/1.1/DTD/svg11.dtd">
<svg version="1.1" id="图层_1" xmlns="http://www.w3.org/2000/svg" xmlns:xlink="http://www.w3.org/1999/xlink" x="0px" y="0px"
	 width="101.667px" height="72px" viewBox="0 0 101.667 72" enable-background="new 0 0 101.667 72" xml:space="preserve">
<path id="XMLID_2034_" opacity="0.74" fill="#183B47" stroke="#FFFFFF" stroke-miterlimit="10" d="M49.831,54.474L35.849,40.472
	c-1.484-1.464-2.536-3.197-3.037-5.071c-0.482-1.794-0.462-3.718,0.189-5.683c0.572-1.705,1.564-3.249,2.847-4.49
	c1.262-1.264,2.846-2.225,4.57-2.767c1.994-0.641,3.979-0.641,5.823-0.16c1.664,0.441,3.237,1.263,4.59,2.406
	c1.394-1.143,2.927-1.964,4.591-2.406c1.854-0.481,3.838-0.481,5.843,0.16c1.725,0.562,3.298,1.524,4.591,2.767
	c1.263,1.252,2.245,2.806,2.816,4.49v0.02v-0.02c0.641,1.964,0.662,3.889,0.181,5.683c-0.501,1.885-1.534,3.607-2.997,5.071
	l-0.09,0.07L51.825,54.474C51.274,55.034,50.382,55.015,49.831,54.474L49.831,54.474L49.831,54.474z"/>
</svg>
