<?xml version="1.0" encoding="utf-8"?>
<!-- Generator: Adobe Illustrator 16.0.0, SVG Export Plug-In . SVG Version: 6.00 Build 0)  -->
<!DOCTYPE svg PUBLIC "-//W3C//DTD SVG 1.1//EN" "http://www.w3.org/Graphics/SVG/1.1/DTD/svg11.dtd">
<svg version="1.1" id="图层_1" xmlns="http://www.w3.org/2000/svg" xmlns:xlink="http://www.w3.org/1999/xlink" x="0px" y="0px"
	 width="76.73px" height="66.009px" viewBox="0 0 76.73 66.009" enable-background="new 0 0 76.73 66.009" xml:space="preserve">
<circle id="XMLID_1622_" fill="#1AAEED" cx="38.041" cy="32.839" r="31.086"/>
<path id="XMLID_1627_" fill="#FFFFFF" d="M21.064,54.087c0,0.971-0.796,1.754-1.742,1.754c-0.969,0-1.766-0.783-1.766-1.754
	c0-3.185,1.318-5.587,3.134-7.329c2.489-2.401,5.999-3.483,8.088-3.67c0.423-0.024,0.809-0.211,1.058-0.436v-0.024l0.025-0.025
	c0.136-0.137,0.249-0.324,0.285-0.522c-1.642-1.355-2.413-3.235-3.035-4.802c-0.299-0.747-0.548-1.381-0.723-1.581l-0.024-0.024
	l-0.125-0.099c-0.721-0.684-1.717-1.953-2.24-3.347c-0.548-1.418-0.685-2.986,0.149-4.43c-0.447-1.319-0.646-2.787-0.671-4.28
	c-0.05-4.206,1.418-8.822,5.076-11.248c1.991-1.344,4.404-1.966,7.167-2.028c0.997-0.026,2.389-0.026,3.759,0.211
	c1.542,0.298,3.011,0.896,3.906,2.152c1.841-0.186,3.446,0.858,4.728,2.352c1.543,1.767,2.625,4.354,2.875,5.923
	c0.187,1.194,0.187,2.389,0.024,3.633c-0.112,0.908-0.324,1.879-0.609,2.887c0.447,0.733,0.746,1.517,0.771,2.462
	c0.025,0.449-0.025,0.921-0.174,1.419c6.719,0.074,12.168,5.562,12.168,12.292c0,6.744-5.536,12.268-12.269,12.268
	c-6.781,0-12.292-5.524-12.292-12.268c0-5.35,3.446-9.929,8.224-11.597c0.809-1.194,1.207-1.978,0.324-3.147
	c-0.36-0.436-0.51-1.033-0.336-1.631c0.349-1.107,0.598-2.139,0.723-3.134c0.124-0.958,0.124-1.83,0-2.663
	c-0.175-1.046-0.971-2.861-2.091-4.206c-0.598-0.684-1.244-1.17-1.767-1.095l0,0c-0.622,0.074-1.22,0-1.766-0.25
	c-0.548-0.261-1.008-0.647-1.344-1.181c-0.274-0.386-0.945-0.636-1.717-0.772c-1.02-0.186-2.214-0.162-3.086-0.162
	c-2.077,0.037-3.881,0.473-5.275,1.418c-1.232,0.834-2.203,2.065-2.799,3.833l-0.013,0.075c-0.485,1.381-0.722,2.935-0.697,4.429
	c0,1.344,0.224,2.65,0.697,3.708c0.124,0.299,0.199,0.598,0.173,0.934v0.063l0,0c-0.124,1.244-1.194,1.181-0.572,2.762l-0.024,0.05
	h0.024c0.3,0.82,0.896,1.58,1.332,2.003l0.013,0.013h0.024l0.038,0.024c0.784,0.735,1.194,1.743,1.679,2.924
	c0.522,1.307,1.146,2.875,2.339,3.621c0.572,0.298,0.971,0.896,0.971,1.592v0.66c0,1.293-0.522,2.413-1.344,3.272h-0.024
	c-0.822,0.846-1.991,1.368-3.235,1.493c-1.543,0.112-4.132,0.909-5.973,2.687C21.936,50.417,21.064,51.985,21.064,54.087
	L21.064,54.087z M55.58,42.503L55.58,42.503c0.584,0,1.07,0.473,1.07,1.07c0,0.572-0.486,1.033-1.07,1.033h-3.646v3.645
	c0,0.585-0.46,1.058-1.033,1.058c-0.596,0-1.069-0.473-1.069-1.058v-3.645h-3.634c-0.598,0-1.045-0.461-1.045-1.033
	c0-0.598,0.447-1.07,1.045-1.07h3.634v-3.645c0-0.585,0.473-1.058,1.069-1.058c0.573,0,1.033,0.473,1.033,1.058v3.645H55.58
	L55.58,42.503z M50.901,34.79L50.901,34.79c-4.828,0-8.796,3.931-8.796,8.784c0,4.828,3.969,8.759,8.796,8.759
	c4.827,0,8.759-3.932,8.759-8.759C59.66,38.72,55.729,34.79,50.901,34.79L50.901,34.79z"/>
</svg>
